<svg width="39" height="24" viewBox="0 0 39 24" fill="none" xmlns="http://www.w3.org/2000/svg">
<path d="M7.04388 16.3301C7.04388 16.4744 6.98658 16.6127 6.88458 16.7147C6.78259 16.8167 6.64425 16.874 6.5 16.874C6.35575 16.874 6.21741 16.8167 6.11542 16.7147C6.01342 16.6127 5.95612 16.4744 5.95612 16.3301L5.95995 13.04L2.66984 13.0438C2.52559 13.0438 2.38725 12.9865 2.28526 12.8845C2.18326 12.7825 2.12596 12.6442 2.12596 12.5C2.12596 12.3557 2.18326 12.2174 2.28525 12.1154C2.38725 12.0134 2.52559 11.9561 2.66984 11.9561L5.95995 11.9599L5.95612 8.6698C5.95612 8.52555 6.01342 8.38722 6.11542 8.28522C6.21741 8.18322 6.35575 8.12592 6.5 8.12592C6.64425 8.12592 6.78259 8.18322 6.88458 8.28522C6.98658 8.38722 7.04388 8.52555 7.04388 8.6698L7.04005 11.9599L10.3302 11.9561C10.4744 11.9561 10.6127 12.0134 10.7147 12.1154C10.8167 12.2174 10.874 12.3557 10.874 12.5C10.874 12.6442 10.8167 12.7825 10.7147 12.8845C10.6127 12.9865 10.4744 13.0438 10.3302 13.0438L7.04005 13.04L7.04388 16.3301Z" fill="#FAFAFA"/>
<path d="M34 2H20C19.2044 2 18.4413 2.31607 17.8787 2.87868C17.3161 3.44129 17 4.20435 17 5V18V19C17 19.7956 17.3161 20.5587 17.8787 21.1213C18.4413 21.6839 19.2044 22 20 22H34C34.7956 22 35.5587 21.6839 36.1213 21.1213C36.6839 20.5587 37 19.7956 37 19V5C37 4.20435 36.6839 3.44129 36.1213 2.87868C35.5587 2.31607 34.7956 2 34 2ZM20 4H34C34.2652 4 34.5196 4.10536 34.7071 4.29289C34.8946 4.48043 35 4.73478 35 5V17.59L33.12 15.71C32.5773 15.1689 31.848 14.856 31.0819 14.8355C30.3157 14.8151 29.5708 15.0886 29 15.6L26.11 12.71C25.5475 12.1482 24.785 11.8326 23.99 11.8326C23.195 11.8326 22.4325 12.1482 21.87 12.71L19 15.59V5C19 4.73478 19.1054 4.48043 19.2929 4.29289C19.4804 4.10536 19.7348 4 20 4V4ZM20 20C19.7348 20 19.4804 19.8946 19.2929 19.7071C19.1054 19.5196 19 19.2652 19 19V18.41L23.29 14.12C23.383 14.0263 23.4936 13.9519 23.6154 13.9011C23.7373 13.8503 23.868 13.8242 24 13.8242C24.132 13.8242 24.2627 13.8503 24.3846 13.9011C24.5064 13.9519 24.617 14.0263 24.71 14.12L28.29 17.71C28.4653 17.8794 28.6964 17.979 28.94 17.99H29.07C29.3088 17.9717 29.5344 17.873 29.71 17.71V17.71L30.29 17.12C30.383 17.0263 30.4936 16.9519 30.6154 16.9011C30.7373 16.8503 30.868 16.8242 31 16.8242C31.132 16.8242 31.2627 16.8503 31.3846 16.9011C31.5064 16.9519 31.617 17.0263 31.71 17.12L34.46 19.87C34.321 19.9536 34.1622 19.9984 34 20H20ZM30.33 11.57C30.9036 11.57 31.4643 11.3999 31.9412 11.0813C32.4181 10.7626 32.7898 10.3097 33.0093 9.77978C33.2287 9.24988 33.2862 8.66678 33.1743 8.10424C33.0624 7.54169 32.7862 7.02496 32.3806 6.61939C31.975 6.21382 31.4583 5.93762 30.8958 5.82572C30.3332 5.71383 29.7501 5.77126 29.2202 5.99075C28.6903 6.21024 28.2374 6.58194 27.9187 7.05885C27.6001 7.53575 27.43 8.09643 27.43 8.67C27.43 9.43913 27.7355 10.1768 28.2794 10.7206C28.8232 11.2645 29.5609 11.57 30.33 11.57V11.57ZM30.33 7.57C30.5476 7.57 30.7602 7.63451 30.9411 7.75538C31.122 7.87625 31.263 8.04805 31.3463 8.24905C31.4295 8.45005 31.4513 8.67122 31.4089 8.8846C31.3664 9.09798 31.2617 9.29398 31.1078 9.44782C30.954 9.60166 30.758 9.70642 30.5446 9.74886C30.3312 9.79131 30.11 9.76952 29.909 9.68627C29.708 9.60301 29.5363 9.46202 29.4154 9.28113C29.2945 9.10023 29.23 8.88756 29.23 8.67C29.23 8.37826 29.3459 8.09847 29.5522 7.89218C29.7585 7.68589 30.0383 7.57 30.33 7.57V7.57Z" fill="#FAFAFA"/>
</svg>
